<svg version="1.1" xmlns="http://www.w3.org/2000/svg" xmlns:xlink="http://www.w3.org/1999/xlink" width="1198" height="671"><defs></defs><g><g transform="translate(-158,-62) scale(1,1)"><rect fill="#C0C0C0" stroke="none" x="175" y="79" width="254" height="85" opacity="0.2"></rect></g><g transform="translate(-158,-62) scale(1,1)"><rect fill="#ffffff" stroke="none" x="168" y="72" width="254" height="85"></rect></g><g transform="translate(-158,-62) scale(1,1)"><path fill="none" stroke="#000000" d="M 168 72 L 422 72 L 422 157 L 168 157 L 168 72 Z Z" stroke-miterlimit="10"></path></g><g transform="translate(-158,-62) scale(1,1)"><path fill="none" stroke="#000000" d="M 168 110 L 422 110" stroke-miterlimit="10"></path></g><g transform="translate(-158,-62) scale(1,1)"><path fill="none" stroke="#000000" d="M 168 120 L 422 120" stroke-miterlimit="10"></path></g><g transform="translate(-158,-62) scale(1,1)"><g><path fill="none" stroke="none"></path><text fill="#000000" stroke="none" font-family="Arial" font-size="13px" font-style="normal" font-weight="normal" text-decoration="none" x="264.5" y="89.5">«abstract»</text></g></g><g transform="translate(-158,-62) scale(1,1)"><g><path fill="none" stroke="none"></path><text fill="#000000" stroke="none" font-family="Arial" font-size="13px" font-style="italic" font-weight="bold" text-decoration="none" x="280" y="104.5">Page</text></g></g><g transform="translate(-158,-62) scale(1,1)"><g><path fill="none" stroke="none"></path><text fill="#000000" stroke="none" font-family="Arial" font-size="13px" font-style="normal" font-weight="normal" text-decoration="none" x="173" y="137.5">+getUserInput(form, clickableArea)</text></g></g><g transform="translate(-158,-62) scale(1,1)"><g><path fill="none" stroke="none"></path><text fill="#000000" stroke="none" font-family="Arial" font-size="13px" font-style="normal" font-weight="normal" text-decoration="none" x="173" y="152.5">+updateContent()</text></g></g><g transform="translate(-158,-62) scale(1,1)"><rect fill="#C0C0C0" stroke="none" x="175" y="311" width="128" height="87" opacity="0.2"></rect></g><g transform="translate(-158,-62) scale(1,1)"><rect fill="#ffffff" stroke="none" x="168" y="304" width="128" height="87"></rect></g><g transform="translate(-158,-62) scale(1,1)"><path fill="none" stroke="#000000" d="M 168 304 L 296 304 L 296 391 L 168 391 L 168 304 Z Z" stroke-miterlimit="10"></path></g><g transform="translate(-158,-62) scale(1,1)"><path fill="none" stroke="#000000" d="M 168 329 L 296 329" stroke-miterlimit="10"></path></g><g transform="translate(-158,-62) scale(1,1)"><path fill="none" stroke="#000000" d="M 168 339 L 296 339" stroke-miterlimit="10"></path></g><g transform="translate(-158,-62) scale(1,1)"><g><path fill="none" stroke="none"></path><text fill="#000000" stroke="none" font-family="Arial" font-size="13px" font-style="normal" font-weight="bold" text-decoration="none" x="203" y="323.5">MainPage</text></g></g><g transform="translate(-158,-62) scale(1,1)"><g><path fill="none" stroke="none"></path><text fill="#000000" stroke="none" font-family="Arial" font-size="13px" font-style="normal" font-weight="normal" text-decoration="none" x="173" y="356.5">+viewSiteInfo()</text></g></g><g transform="translate(-158,-62) scale(1,1)"><g><path fill="none" stroke="none"></path><text fill="#000000" stroke="none" font-family="Arial" font-size="13px" font-style="normal" font-weight="normal" text-decoration="none" x="173" y="371.5">+showPopularQuiz()</text></g></g><g transform="translate(-158,-62) scale(1,1)"><rect fill="#C0C0C0" stroke="none" x="351" y="311" width="179" height="87" opacity="0.2"></rect></g><g transform="translate(-158,-62) scale(1,1)"><rect fill="#ffffff" stroke="none" x="344" y="304" width="179" height="87"></rect></g><g transform="translate(-158,-62) scale(1,1)"><path fill="none" stroke="#000000" d="M 344 304 L 523 304 L 523 391 L 344 391 L 344 304 Z Z" stroke-miterlimit="10"></path></g><g transform="translate(-158,-62) scale(1,1)"><path fill="none" stroke="#000000" d="M 344 329 L 523 329" stroke-miterlimit="10"></path></g><g transform="translate(-158,-62) scale(1,1)"><path fill="none" stroke="#000000" d="M 344 339 L 523 339" stroke-miterlimit="10"></path></g><g transform="translate(-158,-62) scale(1,1)"><g><path fill="none" stroke="none"></path><text fill="#000000" stroke="none" font-family="Arial" font-size="13px" font-style="normal" font-weight="bold" text-decoration="none" x="382" y="323.5">CategoryListPage</text></g></g><g transform="translate(-158,-62) scale(1,1)"><g><path fill="none" stroke="none"></path><text fill="#000000" stroke="none" font-family="Arial" font-size="13px" font-style="normal" font-weight="normal" text-decoration="none" x="349" y="356.5">+viewCategory()</text></g></g><g transform="translate(-158,-62) scale(1,1)"><g><path fill="none" stroke="none"></path><text fill="#000000" stroke="none" font-family="Arial" font-size="13px" font-style="normal" font-weight="normal" text-decoration="none" x="349" y="371.5">+orderBy(: String)</text></g></g><g transform="translate(-158,-62) scale(1,1)"><g><path fill="none" stroke="none"></path><text fill="#000000" stroke="none" font-family="Arial" font-size="13px" font-style="normal" font-weight="normal" text-decoration="none" x="349" y="386.5">+chooseCathegory()</text></g></g><g transform="translate(-158,-62) scale(1,1)"><rect fill="#C0C0C0" stroke="none" x="575" y="311" width="179" height="102" opacity="0.2"></rect></g><g transform="translate(-158,-62) scale(1,1)"><rect fill="#ffffff" stroke="none" x="568" y="304" width="179" height="102"></rect></g><g transform="translate(-158,-62) scale(1,1)"><path fill="none" stroke="#000000" d="M 568 304 L 747 304 L 747 406 L 568 406 L 568 304 Z Z" stroke-miterlimit="10"></path></g><g transform="translate(-158,-62) scale(1,1)"><path fill="none" stroke="#000000" d="M 568 329 L 747 329" stroke-miterlimit="10"></path></g><g transform="translate(-158,-62) scale(1,1)"><path fill="none" stroke="#000000" d="M 568 339 L 747 339" stroke-miterlimit="10"></path></g><g transform="translate(-158,-62) scale(1,1)"><g><path fill="none" stroke="none"></path><text fill="#000000" stroke="none" font-family="Arial" font-size="13px" font-style="normal" font-weight="bold" text-decoration="none" x="618.5" y="323.5">QuizListPage</text></g></g><g transform="translate(-158,-62) scale(1,1)"><g><path fill="none" stroke="none"></path><text fill="#000000" stroke="none" font-family="Arial" font-size="13px" font-style="normal" font-weight="normal" text-decoration="none" x="573" y="356.5">+viewQuizList()</text></g></g><g transform="translate(-158,-62) scale(1,1)"><g><path fill="none" stroke="none"></path><text fill="#000000" stroke="none" font-family="Arial" font-size="13px" font-style="normal" font-weight="normal" text-decoration="none" x="573" y="371.5">+search(: String)</text></g></g><g transform="translate(-158,-62) scale(1,1)"><g><path fill="none" stroke="none"></path><text fill="#000000" stroke="none" font-family="Arial" font-size="13px" font-style="normal" font-weight="normal" text-decoration="none" x="573" y="386.5">+orderBy(: String)</text></g></g><g transform="translate(-158,-62) scale(1,1)"><g><path fill="none" stroke="none"></path><text fill="#000000" stroke="none" font-family="Arial" font-size="13px" font-style="normal" font-weight="normal" text-decoration="none" x="573" y="401.5">+chooseQuiz()</text></g></g><g transform="translate(-158,-62) scale(1,1)"><rect fill="#C0C0C0" stroke="none" x="959" y="311" width="175" height="132" opacity="0.2"></rect></g><g transform="translate(-158,-62) scale(1,1)"><rect fill="#ffffff" stroke="none" x="952" y="304" width="175" height="132"></rect></g><g transform="translate(-158,-62) scale(1,1)"><path fill="none" stroke="#000000" d="M 952 304 L 1127 304 L 1127 436 L 952 436 L 952 304 Z Z" stroke-miterlimit="10"></path></g><g transform="translate(-158,-62) scale(1,1)"><path fill="none" stroke="#000000" d="M 952 329 L 1127 329" stroke-miterlimit="10"></path></g><g transform="translate(-158,-62) scale(1,1)"><path fill="none" stroke="#000000" d="M 952 339 L 1127 339" stroke-miterlimit="10"></path></g><g transform="translate(-158,-62) scale(1,1)"><g><path fill="none" stroke="none"></path><text fill="#000000" stroke="none" font-family="Arial" font-size="13px" font-style="normal" font-weight="bold" text-decoration="none" x="982" y="323.5">QuizExecutionPage</text></g></g><g transform="translate(-158,-62) scale(1,1)"><g><path fill="none" stroke="none"></path><text fill="#000000" stroke="none" font-family="Arial" font-size="13px" font-style="normal" font-weight="normal" text-decoration="none" x="957" y="356.5">+viewQuestion(: int)</text></g></g><g transform="translate(-158,-62) scale(1,1)"><g><path fill="none" stroke="none"></path><text fill="#000000" stroke="none" font-family="Arial" font-size="13px" font-style="normal" font-weight="normal" text-decoration="none" x="957" y="371.5">+answer(: String)</text></g></g><g transform="translate(-158,-62) scale(1,1)"><g><path fill="none" stroke="none"></path><text fill="#000000" stroke="none" font-family="Arial" font-size="13px" font-style="normal" font-weight="normal" text-decoration="none" x="957" y="386.5">+nextQuestion()</text></g></g><g transform="translate(-158,-62) scale(1,1)"><g><path fill="none" stroke="none"></path><text fill="#000000" stroke="none" font-family="Arial" font-size="13px" font-style="normal" font-weight="normal" text-decoration="none" x="957" y="401.5">+prevQuestion()</text></g></g><g transform="translate(-158,-62) scale(1,1)"><g><path fill="none" stroke="none"></path><text fill="#000000" stroke="none" font-family="Arial" font-size="13px" font-style="normal" font-weight="normal" text-decoration="none" x="957" y="416.5">+endQuiz()</text></g></g><g transform="translate(-158,-62) scale(1,1)"><g><path fill="none" stroke="none"></path><text fill="#000000" stroke="none" font-family="Arial" font-size="13px" font-style="normal" font-weight="normal" text-decoration="none" x="957" y="431.5">+viewResult()</text></g></g><g transform="translate(-158,-62) scale(1,1)"><rect fill="#C0C0C0" stroke="none" x="1199" y="311" width="154" height="132" opacity="0.2"></rect></g><g transform="translate(-158,-62) scale(1,1)"><rect fill="#ffffff" stroke="none" x="1192" y="304" width="154" height="132"></rect></g><g transform="translate(-158,-62) scale(1,1)"><path fill="none" stroke="#000000" d="M 1192 304 L 1346 304 L 1346 436 L 1192 436 L 1192 304 Z Z" stroke-miterlimit="10"></path></g><g transform="translate(-158,-62) scale(1,1)"><path fill="none" stroke="#000000" d="M 1192 329 L 1346 329" stroke-miterlimit="10"></path></g><g transform="translate(-158,-62) scale(1,1)"><path fill="none" stroke="#000000" d="M 1192 339 L 1346 339" stroke-miterlimit="10"></path></g><g transform="translate(-158,-62) scale(1,1)"><g><path fill="none" stroke="none"></path><text fill="#000000" stroke="none" font-family="Arial" font-size="13px" font-style="normal" font-weight="bold" text-decoration="none" x="1203" y="323.5">QuizManagementPage</text></g></g><g transform="translate(-158,-62) scale(1,1)"><g><path fill="none" stroke="none"></path><text fill="#000000" stroke="none" font-family="Arial" font-size="13px" font-style="normal" font-weight="normal" text-decoration="none" x="1197" y="356.5">+createQuiz()</text></g></g><g transform="translate(-158,-62) scale(1,1)"><g><path fill="none" stroke="none"></path><text fill="#000000" stroke="none" font-family="Arial" font-size="13px" font-style="normal" font-weight="normal" text-decoration="none" x="1197" y="371.5">+modifyQuiz()</text></g></g><g transform="translate(-158,-62) scale(1,1)"><g><path fill="none" stroke="none"></path><text fill="#000000" stroke="none" font-family="Arial" font-size="13px" font-style="normal" font-weight="normal" text-decoration="none" x="1197" y="386.5">+deleteQuiz()</text></g></g><g transform="translate(-158,-62) scale(1,1)"><g><path fill="none" stroke="none"></path><text fill="#000000" stroke="none" font-family="Arial" font-size="13px" font-style="normal" font-weight="normal" text-decoration="none" x="1197" y="401.5">+submitQuestion()</text></g></g><g transform="translate(-158,-62) scale(1,1)"><g><path fill="none" stroke="none"></path><text fill="#000000" stroke="none" font-family="Arial" font-size="13px" font-style="normal" font-weight="normal" text-decoration="none" x="1197" y="416.5">+modifyQuestion()</text></g></g><g transform="translate(-158,-62) scale(1,1)"><g><path fill="none" stroke="none"></path><text fill="#000000" stroke="none" font-family="Arial" font-size="13px" font-style="normal" font-weight="normal" text-decoration="none" x="1197" y="431.5">+deleteQuestion()</text></g></g><g transform="translate(-158,-62) scale(1,1)"><rect fill="#C0C0C0" stroke="none" x="799" y="311" width="120" height="57" opacity="0.2"></rect></g><g transform="translate(-158,-62) scale(1,1)"><rect fill="#ffffff" stroke="none" x="792" y="304" width="120" height="57"></rect></g><g transform="translate(-158,-62) scale(1,1)"><path fill="none" stroke="#000000" d="M 792 304 L 912 304 L 912 361 L 792 361 L 792 304 Z Z" stroke-miterlimit="10"></path></g><g transform="translate(-158,-62) scale(1,1)"><path fill="none" stroke="#000000" d="M 792 329 L 912 329" stroke-miterlimit="10"></path></g><g transform="translate(-158,-62) scale(1,1)"><path fill="none" stroke="#000000" d="M 792 339 L 912 339" stroke-miterlimit="10"></path></g><g transform="translate(-158,-62) scale(1,1)"><g><path fill="none" stroke="none"></path><text fill="#000000" stroke="none" font-family="Arial" font-size="13px" font-style="normal" font-weight="bold" text-decoration="none" x="802.5" y="323.5">QuizTutorialPage</text></g></g><g transform="translate(-158,-62) scale(1,1)"><g><path fill="none" stroke="none"></path><text fill="#000000" stroke="none" font-family="Arial" font-size="13px" font-style="normal" font-weight="normal" text-decoration="none" x="797" y="356.5">+viewQMLTutorial()</text></g></g><g transform="translate(-158,-62) scale(1,1)"><rect fill="#C0C0C0" stroke="none" x="193" y="570" width="192" height="160" opacity="0.2"></rect></g><g transform="translate(-158,-62) scale(1,1)"><rect fill="#ffffff" stroke="none" x="186" y="563" width="192" height="160"></rect></g><g transform="translate(-158,-62) scale(1,1)"><path fill="none" stroke="#000000" d="M 186 563 L 378 563 L 378 723 L 186 723 L 186 563 Z Z" stroke-miterlimit="10"></path></g><g transform="translate(-158,-62) scale(1,1)"><path fill="none" stroke="#000000" d="M 186 588 L 378 588" stroke-miterlimit="10"></path></g><g transform="translate(-158,-62) scale(1,1)"><path fill="none" stroke="#000000" d="M 186 656 L 378 656" stroke-miterlimit="10"></path></g><g transform="translate(-158,-62) scale(1,1)"><g><path fill="none" stroke="none"></path><text fill="#000000" stroke="none" font-family="Arial" font-size="13px" font-style="normal" font-weight="bold" text-decoration="none" x="247" y="582.5">CurrentView</text></g></g><g transform="translate(-158,-62) scale(1,1)"><g><path fill="none" stroke="none"></path><text fill="#000000" stroke="none" font-family="Arial" font-size="13px" font-style="normal" font-weight="normal" text-decoration="none" x="191" y="605.5">-currentUser: User</text></g></g><g transform="translate(-158,-62) scale(1,1)"><g><path fill="none" stroke="none"></path><text fill="#000000" stroke="none" font-family="Arial" font-size="13px" font-style="normal" font-weight="normal" text-decoration="none" x="191" y="620.5">-currentPage: Page</text></g></g><g transform="translate(-158,-62) scale(1,1)"><g><path fill="none" stroke="none"></path><text fill="#000000" stroke="none" font-family="Arial" font-size="13px" font-style="normal" font-weight="normal" text-decoration="none" x="191" y="635.5">-toPresenter: UserEventSender</text></g></g><g transform="translate(-158,-62) scale(1,1)"><g><path fill="none" stroke="none"></path><text fill="#000000" stroke="none" font-family="Arial" font-size="13px" font-style="normal" font-weight="normal" text-decoration="none" x="191" y="650.5">-fromPresenter: ReceiveUpdate</text></g></g><g transform="translate(-158,-62) scale(1,1)"><g><path fill="none" stroke="none"></path><text fill="#000000" stroke="none" font-family="Arial" font-size="13px" font-style="normal" font-weight="normal" text-decoration="none" x="191" y="673.5">+enterLink(: Page)</text></g></g><g transform="translate(-158,-62) scale(1,1)"><g><path fill="none" stroke="none"></path><text fill="#000000" stroke="none" font-family="Arial" font-size="13px" font-style="normal" font-weight="normal" text-decoration="none" x="191" y="688.5">+backToHome()</text></g></g><g transform="translate(-158,-62) scale(1,1)"><g><path fill="none" stroke="none"></path><text fill="#000000" stroke="none" font-family="Arial" font-size="13px" font-style="normal" font-weight="normal" text-decoration="none" x="191" y="703.5">+close()</text></g></g><g transform="translate(-158,-62) scale(1,1)"><g><path fill="none" stroke="none"></path><text fill="#000000" stroke="none" font-family="Arial" font-size="13px" font-style="normal" font-weight="normal" text-decoration="none" x="191" y="718.5">+open()</text></g></g></g></svg>